<?xml version="1.0" encoding="utf-8"?>
<!-- Generator: Adobe Illustrator 24.3.0, SVG Export Plug-In . SVG Version: 6.00 Build 0)  -->
<svg version="1.1" id="Capa_1" xmlns="http://www.w3.org/2000/svg" xmlns:xlink="http://www.w3.org/1999/xlink" x="0px" y="0px"
	 viewBox="0 0 702.5 644.5" style="enable-background:new 0 0 702.5 644.5;" xml:space="preserve">
<style type="text/css">
	.st0{fill:#FFFFFF;}
	.st1{fill:none;stroke:#EFEEEE;stroke-dasharray:0;}
	.st2{fill:#1C3761;}
	.st3{font-family:'SourceSansPro-Regular';}
	.st4{font-size:9.62px;}
	.st5{fill:none;stroke:#1C3761;stroke-dasharray:0;}
	.st6{fill:none;stroke:#1C3761;stroke-dasharray:1,1;}
	.st7{font-family:'ArialMT';}
	.st8{font-size:8.24px;}
	.st9{fill:none;stroke:#1C3761;stroke-width:4;}
	.st10{fill:none;stroke:#79C9D1;stroke-width:4;}
	.st11{font-family:'OpenSans-Bold';}
	.st12{font-size:19.23px;}
	.st13{fill:#79C8D1;}
	.st14{enable-background:new    ;}
	.st15{fill:#1D1D1B;}
	.st16{fill:#79C9D1;}
	.st17{font-size:11.68px;}
	.st18{fill:#003366;}
	.st19{fill:none;stroke:#003366;stroke-width:4.56;}
	.st20{font-family:'OpenSans-SemiBold';}
	.st21{font-size:13.74px;}
	.st22{fill:#878787;}
	.st23{font-size:10.3px;}
</style>
<rect x="-7.4" y="0.6" class="st0" width="702.5" height="644.5"/>
<g id="facets">
	<line class="st1" x1="78.6" y1="529.7" x2="642.6" y2="529.7"/>
	<text transform="matrix(1 0 0 1 56.31 532.83)" class="st2 st3 st4">0%</text>
	<line class="st1" x1="78.6" y1="436.6" x2="642.6" y2="436.6"/>
	<text transform="matrix(1 0 0 1 51.54 439.78)" class="st2 st3 st4">20%</text>
	<line class="st1" x1="78.6" y1="343.5" x2="642.6" y2="343.5"/>
	<text transform="matrix(1 0 0 1 51.54 346.73)" class="st2 st3 st4">40%</text>
	<line class="st1" x1="78.6" y1="250.5" x2="642.6" y2="250.5"/>
	<text transform="matrix(1 0 0 1 51.54 253.67)" class="st2 st3 st4">60%</text>
	<line class="st1" x1="78.6" y1="157.4" x2="642.6" y2="157.4"/>
	<text transform="matrix(1 0 0 1 51.54 160.62)" class="st2 st3 st4">80%</text>
	<path class="st5" d="M79,529.7h563.9"/>
	<line class="st5" x1="79" y1="529.3" x2="79" y2="533.4"/>
	<line class="st5" x1="130.2" y1="529.3" x2="130.2" y2="533.4"/>
	<line class="st5" x1="181.5" y1="529.3" x2="181.5" y2="533.4"/>
	<line class="st5" x1="232.8" y1="529.3" x2="232.8" y2="533.4"/>
	<line class="st5" x1="284" y1="529.3" x2="284" y2="533.4"/>
	<line class="st5" x1="335.3" y1="529.3" x2="335.3" y2="533.4"/>
	<line class="st5" x1="386.6" y1="529.3" x2="386.6" y2="533.4"/>
	<line class="st5" x1="437.9" y1="529.3" x2="437.9" y2="533.4"/>
	<line class="st5" x1="489.1" y1="529.3" x2="489.1" y2="533.4"/>
	<line class="st5" x1="540.4" y1="529.3" x2="540.4" y2="533.4"/>
	<line class="st5" x1="591.7" y1="529.3" x2="591.7" y2="533.4"/>
	<line class="st5" x1="642.9" y1="529.3" x2="642.9" y2="533.4"/>
</g>
<line class="st6" x1="78.6" y1="315.3" x2="642.6" y2="315.3"/>
<text transform="matrix(1 0 0 1 563.32 311.17)" class="st2 st7 st8">Mitjana 2019: 46,5%</text>
<g id="lines">
	<path class="st9" d="M335,333c17.1-10.2,34.2-12.8,51.3-15.4"/>
	<path class="st9" d="M78.6,405.1c17.1-24.2,34.2-48.4,51.3-48.4"/>
	<path class="st10" d="M78.6,400c17.1-0.4,34.2-0.8,51.3-2.3s34.2-33.6,51.3-45.6s34.2-21.7,51.3-26.1s34.2-2.2,51.3-6.5
		s34.2-21.3,51.3-30.7s34.2-17,51.3-25.6c40-20.1,41-27.7,51.3-26.1c21.4,3.3,19.3,31.9,54.7,62.2c3.6,3.1,6.7,5.4,9.6,7.3
		c4.3,2.9,10.8,7,22.2,12.3c9.9,4.6,17.4,7.3,19.5,8c21,7.8,33.8,26.4,53.5,46.2c10,10.1,25,23.6,45.7,37.6"/>
</g>
<g>
	<text transform="matrix(1 0 0 1 304.5819 44.52)" class="st2 st11 st12">Càmpings</text>
</g>
<g>
	<path class="st2" d="M306.6,86.7h11.2c1.1,0,2,0.9,2,2v4c0,1.1-0.9,2-2,2h-11.2c-1.1,0-2-0.9-2-2v-4
		C304.6,87.6,305.5,86.7,306.6,86.7z"/>
	<path class="st13" d="M362.3,86.7h11.2c1.1,0,2,0.9,2,2v4c0,1.1-0.9,2-2,2h-11.2c-1.1,0-2-0.9-2-2v-4
		C360.3,87.6,361.2,86.7,362.3,86.7z"/>
	<g>
		<g class="st14">
			<path class="st15" d="M382.8,93.7h-4.1V93l0.9-0.8c0.6-0.5,1-1,1.3-1.3s0.5-0.7,0.6-1s0.2-0.7,0.2-1.2c0-0.4-0.1-0.8-0.3-1
				c-0.2-0.2-0.5-0.3-1-0.3c-0.2,0-0.4,0-0.5,0.1c-0.2,0-0.4,0.1-0.5,0.2l-0.2,0.8h-0.3v-1.3c0.6-0.1,1.1-0.2,1.6-0.2
				c0.7,0,1.3,0.2,1.7,0.5s0.6,0.7,0.6,1.3c0,0.4-0.1,0.7-0.2,1.1c-0.1,0.3-0.4,0.7-0.7,1s-0.8,0.8-1.5,1.4c-0.3,0.3-0.6,0.5-1,0.8
				h3.5v0.6H382.8z"/>
			<path class="st15" d="M388.1,90.3c0,2.3-0.7,3.5-2.2,3.5c-0.7,0-1.2-0.3-1.6-0.9s-0.5-1.5-0.5-2.6s0.2-2,0.5-2.6
				c0.4-0.6,0.9-0.9,1.6-0.9s1.3,0.3,1.6,0.9C387.9,88.3,388.1,89.1,388.1,90.3z M387.2,90.3c0-1.1-0.1-1.9-0.3-2.3
				c-0.2-0.5-0.5-0.7-1-0.7c-0.4,0-0.8,0.2-0.9,0.7c-0.2,0.4-0.3,1.2-0.3,2.4c0,1.1,0.1,1.9,0.3,2.4c0.2,0.5,0.5,0.7,0.9,0.7
				s0.8-0.2,1-0.7C387.1,92.1,387.2,91.4,387.2,90.3z"/>
			<path class="st15" d="M391.7,93.3l1.4,0.1v0.3h-3.6v-0.3l1.4-0.1v-5.5l-1.4,0.5V88l2-1.1h0.3L391.7,93.3L391.7,93.3z"/>
			<path class="st15" d="M394,89c0-0.7,0.2-1.2,0.6-1.6s0.9-0.6,1.6-0.6c0.8,0,1.3,0.3,1.7,0.8c0.4,0.6,0.5,1.4,0.5,2.6
				c0,1.1-0.2,2-0.7,2.6s-1.1,0.9-1.9,0.9c-0.5,0-1-0.1-1.5-0.2v-1.2h0.3l0.2,0.7c0.1,0,0.3,0.1,0.4,0.1s0.4,0.1,0.5,0.1
				c0.5,0,0.9-0.2,1.2-0.7s0.4-1.2,0.5-2.1c-0.5,0.3-1,0.4-1.6,0.4s-1.1-0.2-1.4-0.5C394.2,90.1,394,89.6,394,89z M396.2,87.2
				c-0.8,0-1.3,0.6-1.3,1.8c0,0.5,0.1,0.9,0.3,1.1c0.2,0.2,0.5,0.4,0.9,0.4s0.9-0.1,1.3-0.3c0-1-0.1-1.8-0.3-2.3
				C397,87.5,396.6,87.2,396.2,87.2z"/>
		</g>
	</g>
	<g>
		<g class="st14">
			<path class="st15" d="M329.3,93.7h-4.1V93l0.9-0.8c0.6-0.5,1-1,1.3-1.3s0.5-0.7,0.6-1s0.2-0.7,0.2-1.2c0-0.4-0.1-0.8-0.3-1
				c-0.2-0.2-0.5-0.3-1-0.3c-0.2,0-0.4,0-0.5,0.1c-0.2,0-0.4,0.1-0.5,0.2l-0.2,0.8h-0.3v-1.3c0.6-0.1,1.1-0.2,1.6-0.2
				c0.7,0,1.3,0.2,1.7,0.5c0.4,0.3,0.6,0.7,0.6,1.3c0,0.4-0.1,0.7-0.2,1.1c-0.1,0.3-0.4,0.7-0.7,1s-0.8,0.8-1.5,1.4
				c-0.3,0.3-0.6,0.5-1,0.8h3.5v0.6H329.3z"/>
			<path class="st15" d="M334.6,90.3c0,2.3-0.7,3.5-2.2,3.5c-0.7,0-1.2-0.3-1.6-0.9s-0.5-1.5-0.5-2.6s0.2-2,0.5-2.6
				c0.4-0.6,0.9-0.9,1.6-0.9s1.3,0.3,1.6,0.9C334.4,88.3,334.6,89.1,334.6,90.3z M333.7,90.3c0-1.1-0.1-1.9-0.3-2.3
				c-0.2-0.5-0.5-0.7-1-0.7c-0.4,0-0.7,0.2-0.9,0.7c-0.2,0.4-0.3,1.2-0.3,2.4c0,1.1,0.1,1.9,0.3,2.4c0.2,0.5,0.5,0.7,0.9,0.7
				s0.8-0.2,1-0.7C333.6,92.1,333.7,91.4,333.7,90.3z"/>
			<path class="st15" d="M339.6,93.7h-4.1V93l0.9-0.8c0.6-0.5,1-1,1.3-1.3s0.5-0.7,0.6-1s0.2-0.7,0.2-1.2c0-0.4-0.1-0.8-0.3-1
				c-0.2-0.2-0.5-0.3-1-0.3c-0.2,0-0.4,0-0.5,0.1c-0.2,0-0.4,0.1-0.5,0.2l-0.2,0.8h-0.3v-1.3c0.6-0.1,1.1-0.2,1.6-0.2
				c0.7,0,1.3,0.2,1.7,0.5c0.4,0.3,0.6,0.7,0.6,1.3c0,0.4-0.1,0.7-0.2,1.1c-0.1,0.3-0.4,0.7-0.7,1s-0.8,0.8-1.5,1.4
				c-0.3,0.3-0.6,0.5-1,0.8h3.5v0.6H339.6z"/>
			<path class="st15" d="M344.9,90.3c0,2.3-0.7,3.5-2.2,3.5c-0.7,0-1.2-0.3-1.6-0.9s-0.5-1.5-0.5-2.6s0.2-2,0.5-2.6
				c0.4-0.6,0.9-0.9,1.6-0.9s1.3,0.3,1.6,0.9C344.7,88.3,344.9,89.1,344.9,90.3z M344,90.3c0-1.1-0.1-1.9-0.3-2.3
				c-0.2-0.5-0.5-0.7-1-0.7c-0.4,0-0.7,0.2-0.9,0.7c-0.2,0.4-0.3,1.2-0.3,2.4c0,1.1,0.1,1.9,0.3,2.4c0.2,0.5,0.5,0.7,0.9,0.7
				s0.8-0.2,1-0.7C343.9,92.1,344,91.4,344,90.3z"/>
		</g>
	</g>
</g>
<text transform="matrix(1 0 0 1 69.98 548.05)" class="st2 st3 st4">Gen.</text>
<text transform="matrix(1 0 0 1 121.92 548.05)" class="st2 st3 st4">F</text>
<text transform="matrix(1 0 0 1 126.54 548.05)" class="st2 st3 st4">e</text>
<text transform="matrix(1 0 0 1 131.31 548.05)" class="st2 st3 st4">b</text>
<text transform="matrix(1 0 0 1 136.53 548.05)" class="st2 st3 st4">.</text>
<text transform="matrix(1 0 0 1 171.84 548.05)" class="st2 st3 st4">Ma</text>
<text transform="matrix(1 0 0 1 183.68 548.05)" class="st2 st3 st4">r</text>
<text transform="matrix(1 0 0 1 186.47 548.05)" class="st2 st3 st4">.</text>
<text transform="matrix(1 0 0 1 187.53 548.05)" class="st2 st3 st4">*</text>
<text transform="matrix(1 0 0 1 225.1 548.05)" class="st2 st3 st4">Ab</text>
<text transform="matrix(1 0 0 1 235.65 548.05)" class="st2 st3 st4">r</text>
<text transform="matrix(1 0 0 1 238.44 548.05)" class="st2 st3 st4">.</text>
<text transform="matrix(1 0 0 1 274.59 548.05)" class="st2 st3 st4">Mai</text>
<text transform="matrix(1 0 0 1 288.79 548.05)" class="st2 st3 st4">.</text>
<text transform="matrix(1 0 0 1 289.86 548.05)" class="st2 st3 st4">*</text>
<text transform="matrix(1 0 0 1 326.75 548.05)" class="st2 st3 st4">Jun.</text>
<text transform="matrix(1 0 0 1 379.42 548.05)" class="st2 st3 st4">Jul.</text>
<text transform="matrix(1 0 0 1 429.31 548.05)" class="st2 st3 st4">A</text>
<text transform="matrix(1 0 0 1 434.54 548.05)" class="st2 st3 st4">g</text>
<text transform="matrix(1 0 0 1 439.25 548.05)" class="st2 st3 st4">o</text>
<text transform="matrix(1 0 0 1 444.37 548.05)" class="st2 st3 st4">.</text>
<text transform="matrix(1 0 0 1 481.55 548.05)" class="st2 st3 st4">S</text>
<text transform="matrix(1 0 0 1 486.69 548.05)" class="st2 st3 st4">e</text>
<text transform="matrix(1 0 0 1 491.36 548.05)" class="st2 st3 st4">t</text>
<text transform="matrix(1 0 0 1 494.68 548.05)" class="st2 st3 st4">.</text>
<text transform="matrix(1 0 0 1 532.38 548.05)" class="st2 st3 st4">O</text>
<text transform="matrix(1 0 0 1 538.77 548.05)" class="st2 st3 st4">c</text>
<text transform="matrix(1 0 0 1 543.05 548.05)" class="st2 st3 st4">t</text>
<text transform="matrix(1 0 0 1 546.37 548.05)" class="st2 st3 st4">.</text>
<text transform="matrix(1 0 0 1 582.87 548.05)" class="st2 st3 st4">N</text>
<text transform="matrix(1 0 0 1 589.09 548.05)" class="st2 st3 st4">o</text>
<text transform="matrix(1 0 0 1 594.27 548.05)" class="st2 st3 st4">v</text>
<text transform="matrix(1 0 0 1 598.42 548.05)" class="st2 st3 st4">.</text>
<text transform="matrix(1 0 0 1 634.5601 548.05)" class="st2 st3 st4">Des.</text>
<path id="point-0-5-2" class="st2" d="M78.1,544.9c0-0.4,0.3-0.7,0.7-0.7c0.4,0,0.7,0.3,0.7,0.7s-0.3,0.7-0.7,0.7
	C78.4,545.6,78.1,545.3,78.1,544.9C78.1,545,78.1,545,78.1,544.9L78.1,544.9z"/>
<path id="point-1-11-2" class="st16" d="M73.8,399.3c0-2.3,1.8-4.1,4.1-4.1c2.2,0.1,4,1.9,4.1,4.1c0,2.2-1.8,4.1-4,4.1h-0.1
	C75.7,403.4,73.8,401.5,73.8,399.3z"/>
<path id="point-0-6-2" class="st2" d="M73.8,404.6c0-2.3,1.8-4.1,4.1-4.1c2.3,0,4.1,1.8,4.1,4.1c0,2.3-1.8,4.1-4.1,4.1
	C75.6,408.7,73.8,406.9,73.8,404.6z"/>
<path id="point-0-6-3" class="st16" d="M126.8,397.6c0-1.7,1.4-3.1,3.1-3.1c1.7,0,3.1,1.4,3.1,3.1s-1.4,3.1-3.1,3.1
	S126.8,399.3,126.8,397.6L126.8,397.6z"/>
<path id="point-0-6-4" class="st16" d="M177.5,352.3c0-1.7,1.4-3.1,3.1-3.1c1.7,0,3.1,1.4,3.1,3.1s-1.4,3.1-3.1,3.1l0,0
	C178.9,355.4,177.5,354,177.5,352.3z"/>
<path id="point-0-6-5" class="st2" d="M127.5,356.7c0-1.7,1.4-3.1,3.1-3.1c1.7,0,3.1,1.4,3.1,3.1s-1.4,3.1-3.1,3.1l0,0
	C128.9,359.8,127.5,358.4,127.5,356.7z"/>
<path id="point-0-6-6" class="st2" d="M331.7,333c0-1.7,1.4-3.1,3.1-3.1s3.1,1.4,3.1,3.1s-1.4,3.1-3.1,3.1l0,0
	C333.1,336.1,331.7,334.7,331.7,333z"/>
<path id="point-0-6-6-2" class="st2" d="M383,317.6c0-1.7,1.4-3.1,3.1-3.1s3.1,1.4,3.1,3.1s-1.4,3.1-3.1,3.1l0,0
	C384.4,320.7,383,319.3,383,317.6z"/>
<path id="point-0-6-6-3" class="st2" d="M429.6,313.9c0-1.7,1.4-3.1,3.1-3.1s3.1,1.4,3.1,3.1s-1.4,3.1-3.1,3.1l0,0
	C431,317,429.6,315.6,429.6,313.9z"/>
<path id="point-0-6-6-4" class="st2" d="M486,351.4c0-1.7,1.4-3.1,3.1-3.1s3.1,1.4,3.1,3.1s-1.4,3.1-3.1,3.1l0,0
	C487.4,354.4,486,353.1,486,351.4z"/>
<path id="point-0-6-7" class="st16" d="M229.4,326c0-1.7,1.4-3.1,3.1-3.1c1.7,0,3.1,1.4,3.1,3.1s-1.4,3.1-3.1,3.1
	c-1.7,0.1-3-1.2-3.1-2.9l0,0l0,0V326z"/>
<path id="point-0-6-8" class="st16" d="M280.6,319.5c0-1.7,1.4-3.1,3.1-3.1s3.1,1.4,3.1,3.1s-1.4,3.1-3.1,3.1l0,0
	C282,322.6,280.6,321.2,280.6,319.5z"/>
<path id="point-0-6-9" class="st16" d="M331.7,288.8c0-1.7,1.4-3.1,3.1-3.1s3.1,1.4,3.1,3.1s-1.4,3.1-3.1,3.1l0,0
	C333.1,291.9,331.7,290.5,331.7,288.8z"/>
<path id="point-0-6-10" class="st16" d="M383.2,263.2c0-1.7,1.4-3.1,3.1-3.1s3.1,1.4,3.1,3.1s-1.4,3.1-3.1,3.1l0,0
	c-1.7,0.1-3-1.2-3.1-2.9l0,0V263.2z"/>
<path id="point-0-6-11" class="st16" d="M434.4,237.1c0-1.7,1.4-3.1,3.1-3.1s3.1,1.4,3.1,3.1c0,1.7-1.4,3.1-3.1,3.1l0,0
	C435.8,240.2,434.4,238.8,434.4,237.1z"/>
<path id="point-0-6-12" class="st16" d="M486.8,297c0-1.7,1.4-3.1,3.1-3.1s3.1,1.4,3.1,3.1s-1.4,3.1-3.1,3.1l0,0
	C488.2,300.1,486.9,298.7,486.8,297z"/>
<path id="point-0-6-13" class="st16" d="M534.8,325.3c0-1.7,1.4-3.1,3.1-3.1c1.7,0,3.1,1.4,3.1,3.1s-1.4,3.1-3.1,3.1
	S534.8,327,534.8,325.3z"/>
<path id="point-0-6-14" class="st16" d="M581.8,359.8c0-1.7,1.4-3.1,3.1-3.1c1.7,0,3.1,1.4,3.1,3.1s-1.4,3.1-3.1,3.1l0,0l0,0
	C583.2,362.9,581.8,361.5,581.8,359.8z"/>
<text transform="matrix(1 0 0 1 55.96 419.26)" class="st2 st3 st17">26,7</text>
<text transform="matrix(1 0 0 1 123.27 373.14)" class="st2 st3 st17">37,1</text>
<text transform="matrix(1 0 0 1 327.51 349.5701)" class="st2 st3 st17">42,2</text>
<text transform="matrix(1 0 0 1 382.02 330.86)" class="st2 st3 st17">45,5</text>
<text transform="matrix(1 0 0 1 421.93 305.85)" class="st2 st3 st17">46,3</text>
<text transform="matrix(1 0 0 1 479.89 370.25)" class="st2 st3 st17">37,9</text>
<text transform="matrix(1 0 0 1 530.11 359.78)" class="st2 st3 st17">40,3</text>
<text transform="matrix(1 0 0 1 54.45 393.54)" class="st2 st3 st17">27,8</text>
<text transform="matrix(1 0 0 1 126.81 416.28)" class="st2 st3 st17">28,3</text>
<text transform="matrix(1 0 0 1 184.99 359.79)" class="st2 st3 st17">38,1</text>
<text transform="matrix(1 0 0 1 237.4 338.37)" class="st2 st3 st17">43,7</text>
<text transform="matrix(1 0 0 1 286.8 333.66)" class="st2 st3 st17">45,1</text>
<text transform="matrix(1 0 0 1 310.62 286.34)" class="st2 st3 st17">51,7</text>
<text transform="matrix(1 0 0 1 359.97 261.6)" class="st2 st3 st17">57,2</text>
<text transform="matrix(1 0 0 1 427.85 230.21)" class="st2 st3 st17">62,5</text>
<text transform="matrix(1 0 0 1 494.3863 294.3374)" class="st2 st3 st17">49,3</text>
<text transform="matrix(1 0 0 1 550.2295 326.9011)" class="st2 st3 st17">43,6</text>
<text transform="matrix(1 0 0 1 591.5373 359.92)" class="st14"><tspan x="0" y="0" class="st2 st3 st17">37,2</tspan><tspan x="0" y="14" class="st2 st3 st17">  </tspan></text>
<text transform="matrix(1 0 0 1 634.5598 427.7159)" class="st2 st3 st17">25,5</text>
<path id="point-0-6-15" class="st2" d="M229.3,529.2c0-2.3,1.8-4.1,4.1-4.1s4.1,1.8,4.1,4.1s-1.8,4.1-4.1,4.1l0,0l0,0
	C231.1,533.3,229.3,531.5,229.3,529.2z"/>
<text transform="matrix(1 0 0 1 225.95 518.38)" class="st2 st3 st17">0,0</text>
<path id="point-0-6" class="st18" d="M380.7,316.7c0-0.4,0.3-0.7,0.7-0.7l0,0l0,0c0.4,0,0.7,0.3,0.7,0.7s-0.3,0.7-0.7,0.7
	S380.7,317,380.7,316.7z"/>
<path id="point-0-7-2" class="st18" d="M584.9,387.9c0-2.3,1.8-4.2,4.2-4.2c2.3,0,4.2,1.8,4.2,4.1c0,2.3-1.8,4.2-4.1,4.2l0,0
	C586.8,392.1,585,390.2,584.9,387.9L584.9,387.9L584.9,387.9L584.9,387.9z"/>
<path class="st19" d="M589.2,387.4c-3.1-6.4-21.7-44.6-47.1-43.9c-1.7,0-3.5,0.3-5.3,0.7c-6.8,0.9-17,2.4-29.4,4.6
	c-21.2,3.7-20.1,4.3-23.3,4.1c-22.4-1.2-27-29.1-51.2-39c-9.2-3.8-23.8-6.1-46.6,3.1"/>
<path id="point-0-6-6-4_1_" class="st2" d="M535.7,343.5c0-1.7,1.4-3.1,3.1-3.1c1.7,0,3.1,1.4,3.1,3.1s-1.4,3.1-3.1,3.1l0,0
	C537.1,346.6,535.7,345.2,535.7,343.5z"/>
<text transform="matrix(1 0 0 1 582.8703 406.6002)" class="st2 st3 st17">30,0</text>
<path id="point-1-11-2_1_" class="st16" d="M638.5,410.7c0-2.3,1.8-4.1,4.1-4.1c2.2,0.1,4,1.9,4.1,4.1c0,2.2-1.8,4.1-4,4.1h-0.1
	C640.4,414.8,638.5,412.9,638.5,410.7z"/>
<text transform="matrix(1 0 0 1 231.0408 68.3885)" class="st2 st20 st21">Ocupació en percentatge per places.</text>
<g>
	<text transform="matrix(1 0 0 1 50.7331 623.8985)" class="st22 st20 st23">Font: Elaboració pròpia del LABturisme en base a dades de l&apos;Enquesta d&apos;ocupació en allotjaments de l&apos;INE.        </text>
</g>
<text transform="matrix(1 0 0 1 50.9731 589.7485)" class="st22 st20 st23">* Les dades dels mesos de març i maig no estan disponibles, degut al tancament d’establiments per la gestió de la crisi</text>
<text transform="matrix(1 0 0 1 50.9731 602.1085)" class="st22 st20 st23">sanitària ocasionada per la Covid-19.</text>
</svg>
