<?xml version="1.0" encoding="utf-8"?>
<!-- Generator: Adobe Illustrator 24.3.0, SVG Export Plug-In . SVG Version: 6.00 Build 0)  -->
<svg version="1.1" id="Capa_1" xmlns="http://www.w3.org/2000/svg" xmlns:xlink="http://www.w3.org/1999/xlink" x="0px" y="0px"
	 viewBox="0 0 696 644.5" style="enable-background:new 0 0 696 644.5;" xml:space="preserve">
<style type="text/css">
	.st0{fill:#FFFFFF;}
	.st1{fill:none;stroke:#EFEEEE;stroke-dasharray:0;}
	.st2{fill:#1C3761;}
	.st3{font-family:'SourceSansPro-Regular';}
	.st4{font-size:9.62px;}
	.st5{fill:none;stroke:#1C3761;stroke-dasharray:0;}
	.st6{fill:none;stroke:#1C3761;stroke-width:4;}
	.st7{fill:none;stroke:#79C9D1;stroke-width:4;}
	.st8{fill:#79C9D1;}
	.st9{fill:none;stroke:#1C3761;stroke-width:0.5;stroke-dasharray:1,1;}
	.st10{font-family:'ArialMT';}
	.st11{font-size:8.24px;}
	.st12{font-size:11.68px;}
	.st13{fill:none;stroke:#003366;stroke-width:3.16;stroke-linecap:round;}
	.st14{font-family:'OpenSans-Bold';}
	.st15{font-size:19.23px;}
	.st16{font-family:'OpenSans-SemiBold';}
	.st17{font-size:13.74px;}
	.st18{fill:#79C8D1;}
	.st19{fill:#1D1D1B;}
	.st20{font-size:10.3px;}
	.st21{fill:#878787;}
</style>
<rect x="-32.4" y="-32.7" class="st0" width="761.3" height="723"/>
<g id="facets">
	<line class="st1" x1="76.9" y1="529.2" x2="640.9" y2="529.2"/>
	<text transform="matrix(1 0 0 1 50.42 532.34)" class="st2 st3 st4">0%</text>
	<line class="st1" x1="76.9" y1="454.7" x2="640.9" y2="454.7"/>
	<text transform="matrix(1 0 0 1 45.64 457.9)" class="st2 st3 st4">10%</text>
	<line class="st1" x1="77.3" y1="380.4" x2="641.3" y2="380.4"/>
	<text transform="matrix(1 0 0 1 45.64 383.45)" class="st2 st3 st4">20%</text>
	<line class="st1" x1="76.9" y1="305.8" x2="640.9" y2="305.8"/>
	<text transform="matrix(1 0 0 1 45.64 309.01)" class="st2 st3 st4">30%</text>
	<line class="st1" x1="76.9" y1="231.4" x2="640.9" y2="231.4"/>
	<text transform="matrix(1 0 0 1 45.64 234.5701)" class="st2 st3 st4">40%</text>
	<line class="st1" x1="76.9" y1="156.9" x2="640.9" y2="156.9"/>
	<text transform="matrix(1 0 0 1 45.64 160.13)" class="st2 st3 st4">50%</text>
	<path class="st5" d="M77.3,529.2h564"/>
	<line class="st5" x1="77.3" y1="528.8" x2="77.3" y2="532.9"/>
	<text transform="matrix(1 0 0 1 68.09 548.05)" class="st2 st3 st4">Gen.</text>
	<line class="st5" x1="128.5" y1="528.8" x2="128.5" y2="532.9"/>
	<text transform="matrix(1 0 0 1 120.03 548.05)" class="st2 st3 st4">F</text>
	<text transform="matrix(1 0 0 1 124.65 548.05)" class="st2 st3 st4">e</text>
	<text transform="matrix(1 0 0 1 129.42 548.05)" class="st2 st3 st4">b</text>
	<text transform="matrix(1 0 0 1 134.64 548.05)" class="st2 st3 st4">.</text>
	<line class="st5" x1="179.8" y1="528.8" x2="179.8" y2="532.9"/>
	<text transform="matrix(1 0 0 1 169.95 548.05)" class="st2 st3 st4">Ma</text>
	<text transform="matrix(1 0 0 1 181.79 548.05)" class="st2 st3 st4">r</text>
	<text transform="matrix(1 0 0 1 184.58 548.05)" class="st2 st3 st4">.</text>
	<text transform="matrix(1 0 0 1 185.64 548.05)" class="st2 st3 st4">*</text>
	<line class="st5" x1="231.1" y1="528.8" x2="231.1" y2="532.9"/>
	<text transform="matrix(1 0 0 1 223.21 548.05)" class="st2 st3 st4">Ab</text>
	<text transform="matrix(1 0 0 1 233.76 548.05)" class="st2 st3 st4">r</text>
	<text transform="matrix(1 0 0 1 236.55 548.05)" class="st2 st3 st4">.</text>
	<line class="st5" x1="282.3" y1="528.8" x2="282.3" y2="532.9"/>
	<text transform="matrix(1 0 0 1 272.69 548.05)" class="st2 st3 st4">Mai</text>
	<text transform="matrix(1 0 0 1 286.89 548.05)" class="st2 st3 st4">.</text>
	<text transform="matrix(1 0 0 1 287.96 548.05)" class="st2 st3 st4">*</text>
	<line class="st5" x1="333.6" y1="528.8" x2="333.6" y2="532.9"/>
	<text transform="matrix(1 0 0 1 324.86 548.05)" class="st2 st3 st4">Jun.</text>
	<line class="st5" x1="384.9" y1="528.8" x2="384.9" y2="532.9"/>
	<text transform="matrix(1 0 0 1 377.53 548.05)" class="st2 st3 st4">Jul.</text>
	<line class="st5" x1="436.1" y1="528.8" x2="436.1" y2="532.9"/>
	<text transform="matrix(1 0 0 1 427.42 548.05)" class="st2 st3 st4">A</text>
	<text transform="matrix(1 0 0 1 432.65 548.05)" class="st2 st3 st4">g</text>
	<text transform="matrix(1 0 0 1 437.36 548.05)" class="st2 st3 st4">o</text>
	<text transform="matrix(1 0 0 1 442.48 548.05)" class="st2 st3 st4">.</text>
	<line class="st5" x1="487.4" y1="528.8" x2="487.4" y2="532.9"/>
	<text transform="matrix(1 0 0 1 479.65 548.05)" class="st2 st3 st4">S</text>
	<text transform="matrix(1 0 0 1 484.79 548.05)" class="st2 st3 st4">e</text>
	<text transform="matrix(1 0 0 1 489.46 548.05)" class="st2 st3 st4">t</text>
	<text transform="matrix(1 0 0 1 492.78 548.05)" class="st2 st3 st4">.</text>
	<line class="st5" x1="538.7" y1="528.8" x2="538.7" y2="532.9"/>
	<text transform="matrix(1 0 0 1 530.49 548.05)" class="st2 st3 st4">O</text>
	<text transform="matrix(1 0 0 1 536.88 548.05)" class="st2 st3 st4">c</text>
	<text transform="matrix(1 0 0 1 541.16 548.05)" class="st2 st3 st4">t</text>
	<text transform="matrix(1 0 0 1 544.48 548.05)" class="st2 st3 st4">.</text>
	<line class="st5" x1="590" y1="528.8" x2="590" y2="532.9"/>
	<text transform="matrix(1 0 0 1 580.98 548.05)" class="st2 st3 st4">N</text>
	<text transform="matrix(1 0 0 1 587.2 548.05)" class="st2 st3 st4">o</text>
	<text transform="matrix(1 0 0 1 592.38 548.05)" class="st2 st3 st4">v</text>
	<text transform="matrix(1 0 0 1 596.53 548.05)" class="st2 st3 st4">.</text>
	<line class="st5" x1="641.2" y1="528.8" x2="641.2" y2="532.9"/>
	<text transform="matrix(1 0 0 1 632.6699 548.05)" class="st2 st3 st4">Des.</text>
</g>
<path class="st6" d="M74.9,450.7c17.1-6.7,34.1-13.4,51.3-13.4"/>
<path class="st7" d="M74.9,467c17.1-14.5,34.1-28.9,51.3-38s34.2-8.4,51.3-16.4s34.2-31.3,51.3-31.3s34.2,20.1,51.3,20.1
	s34.2-33.4,51.3-50.6s34.2-21.3,51.3-52.9s34.2-136.2,51.3-136.2s34.2,209.8,51.3,225.6s34.2,23.8,51.3,23.8s34.2-16.1,51.3-26.8
	s34.2-23.9,51.3-37.2"/>
<path id="point-0-0" class="st2" d="M74.2,450.7c0-0.4,0.3-0.7,0.6-0.7l0,0l0,0c0.4,0,0.7,0.3,0.7,0.7l0,0l0,0
	c0,0.4-0.3,0.7-0.7,0.7l0,0l0,0C74.5,451.3,74.2,451.1,74.2,450.7L74.2,450.7L74.2,450.7L74.2,450.7z"/>
<path id="point-0-1" class="st2" d="M125.4,437.3c0-0.4,0.3-0.7,0.7-0.7s0.7,0.3,0.7,0.7c0,0.4-0.3,0.7-0.7,0.7
	S125.4,437.6,125.4,437.3L125.4,437.3z"/>
<path id="point-0-3" class="st2" d="M228,528.8c0-0.4,0.3-0.7,0.7-0.7s0.7,0.3,0.7,0.7s-0.3,0.7-0.7,0.7S228,529.2,228,528.8
	L228,528.8z"/>
<path id="point-0-5" class="st2" d="M330.5,383.7c0-0.4,0.3-0.7,0.7-0.7s0.7,0.3,0.7,0.7s-0.3,0.7-0.7,0.7S330.5,384,330.5,383.7
	L330.5,383.7z"/>
<path id="point-1-0" class="st8" d="M74.2,467c0-0.4,0.3-0.7,0.7-0.7l0,0l0,0c0.4,0,0.7,0.3,0.7,0.6l0,0l0,0c0,0.4-0.3,0.7-0.7,0.7
	l0,0l0,0C74.5,467.7,74.2,467.4,74.2,467L74.2,467L74.2,467L74.2,467z"/>
<path id="point-1-1" class="st8" d="M126.1,428.8c0.2,0,0.3,0.1,0.3,0.3s-0.1,0.3-0.3,0.3s-0.3-0.1-0.3-0.3S126,428.8,126.1,428.8
	L126.1,428.8L126.1,428.8"/>
<path id="point-1-2" class="st8" d="M177.1,412.7c0-0.2,0.1-0.3,0.3-0.3s0.3,0.1,0.3,0.3c0,0.2-0.1,0.3-0.3,0.3
	S177.1,412.9,177.1,412.7L177.1,412.7z"/>
<path id="point-1-3" class="st8" d="M228.4,381.4c0-0.2,0.1-0.3,0.3-0.3s0.3,0.1,0.3,0.3c0,0.2-0.1,0.3-0.3,0.3
	S228.4,381.6,228.4,381.4L228.4,381.4z"/>
<path id="point-1-5" class="st8" d="M330.5,350.9c0-0.4,0.3-0.7,0.7-0.7s0.7,0.3,0.7,0.7s-0.3,0.7-0.7,0.7S330.5,351.3,330.5,350.9
	L330.5,350.9z"/>
<path id="point-1-6" class="st8" d="M381.8,298c0-0.4,0.3-0.7,0.6-0.7l0,0l0,0c0.4,0,0.7,0.3,0.7,0.7s-0.3,0.7-0.7,0.7l0,0l0,0
	C382.1,298.7,381.8,298.5,381.8,298C381.8,298.1,381.8,298.1,381.8,298L381.8,298L381.8,298z"/>
<path id="point-1-7" class="st8" d="M433.1,161.8c0-0.4,0.3-0.7,0.6-0.7l0,0l0,0c0.4,0,0.7,0.3,0.7,0.7s-0.3,0.7-0.7,0.7l0,0l0,0
	C433.3,162.5,433,162.2,433.1,161.8C433,161.9,433,161.9,433.1,161.8L433.1,161.8L433.1,161.8z"/>
<path id="point-1-8" class="st8" d="M484.3,387.4c0-0.4,0.3-0.7,0.7-0.7s0.7,0.3,0.7,0.7s-0.3,0.7-0.7,0.7S484.3,387.8,484.3,387.4
	L484.3,387.4z"/>
<path id="point-1-9" class="st8" d="M535.6,411.2c0-0.4,0.3-0.7,0.7-0.7s0.7,0.3,0.7,0.7l0,0l0,0c0,0.4-0.3,0.7-0.7,0.7
	S535.6,411.6,535.6,411.2z"/>
<path id="point-1-10" class="st8" d="M586.9,384.4c0-0.4,0.3-0.7,0.7-0.7s0.7,0.3,0.7,0.7s-0.3,0.7-0.7,0.7S586.9,384.8,586.9,384.4
	L586.9,384.4z"/>
<path id="point-1-11" class="st8" d="M634.7,347.2c0-2.3,1.8-4.1,4.1-4.1s4.1,1.8,4.1,4.1c0,2.3-1.8,4.1-4.1,4.1l0,0l0,0
	C636.6,351.3,634.7,349.5,634.7,347.2L634.7,347.2L634.7,347.2L634.7,347.2z"/>
<line class="st9" x1="74.9" y1="368" x2="638.8" y2="368"/>
<text transform="matrix(1 0 0 1 533.19 363.91)" class="st2 st10 st11">Mitjana 2019: 21,6%</text>
<path id="point-0-6-2" class="st2" d="M321.8,386.1c0-1.7,1.4-3.1,3.1-3.1s3.1,1.4,3.1,3.1s-1.4,3.1-3.1,3.1l0,0
	C323.2,389.2,321.8,387.8,321.8,386.1L321.8,386.1L321.8,386.1L321.8,386.1z"/>
<path id="point-0-6-3" class="st8" d="M328.4,350.9c0-1.7,1.4-3.1,3.1-3.1s3.1,1.4,3.1,3.1s-1.4,3.1-3.1,3.1
	S328.4,352.6,328.4,350.9L328.4,350.9z"/>
<path id="point-0-6-4" class="st8" d="M278.8,401.6c0-1.7,1.4-3.1,3.1-3.1s3.1,1.4,3.1,3.1s-1.4,3.1-3.1,3.1l0,0l0,0
	C280.2,404.7,278.8,403.3,278.8,401.6z"/>
<path id="point-0-6-5" class="st8" d="M225.9,381.8c0-1.7,1.4-3.1,3.1-3.1s3.1,1.4,3.1,3.1s-1.4,3.1-3.1,3.1l0,0l0,0
	C227.3,384.9,225.9,383.5,225.9,381.8z"/>
<path id="point-0-6-6" class="st8" d="M174,413c0-1.7,1.4-3.1,3.1-3.1s3.1,1.4,3.1,3.1s-1.4,3.1-3.1,3.1l0,0l0,0
	C175.4,416.1,174,414.7,174,413z"/>
<path id="point-0-6-7" class="st8" d="M123.3,428.8c0-1.7,1.4-3.1,3.1-3.1c1.7,0,3.1,1.4,3.1,3.1s-1.4,3.1-3.1,3.1l0,0l0,0
	C124.7,431.9,123.3,430.5,123.3,428.8z"/>
<path id="point-0-6-8" class="st8" d="M379.4,298c0-1.7,1.4-3.1,3.1-3.1s3.1,1.4,3.1,3.1s-1.4,3.1-3.1,3.1l0,0
	C380.8,301.2,379.4,299.8,379.4,298C379.4,298.1,379.4,298.1,379.4,298L379.4,298L379.4,298z"/>
<path id="point-0-6-8-2" class="st2" d="M377.5,263.6c0-1.7,1.4-3.1,3.1-3.1s3.1,1.4,3.1,3.1s-1.4,3.1-3.1,3.1l0,0
	C378.9,266.7,377.5,265.4,377.5,263.6C377.5,263.7,377.5,263.7,377.5,263.6L377.5,263.6L377.5,263.6z"/>
<path id="point-0-6-8-2-2" class="st2" d="M481.2,403.4c0-1.7,1.4-3.1,3.1-3.1s3.1,1.4,3.1,3.1s-1.4,3.1-3.1,3.1l0,0
	C482.6,406.5,481.2,405.1,481.2,403.4L481.2,403.4L481.2,403.4L481.2,403.4z"/>
<path id="point-0-6-8-2-3" class="st2" d="M428.2,140.4c0-1.7,1.4-3.1,3.1-3.1s3.1,1.4,3.1,3.1c0,1.7-1.4,3.1-3.1,3.1l0,0
	C429.6,143.5,428.2,142.1,428.2,140.4L428.2,140.4L428.2,140.4L428.2,140.4z"/>
<path id="point-0-6-9" class="st8" d="M481.9,387.4c0-1.7,1.4-3.1,3.1-3.1s3.1,1.4,3.1,3.1s-1.4,3.1-3.1,3.1l0,0l0,0
	C483.3,390.5,481.9,389.1,481.9,387.4z"/>
<path id="point-0-6-10" class="st8" d="M533.2,411.2c0-1.7,1.4-3.1,3.1-3.1c1.7,0,3.1,1.4,3.1,3.1s-1.4,3.1-3.1,3.1
	S533.2,412.9,533.2,411.2L533.2,411.2z"/>
<path id="point-0-6-11" class="st8" d="M584.5,384.4c0-1.7,1.4-3.1,3.1-3.1c1.7,0,3.1,1.4,3.1,3.1s-1.4,3.1-3.1,3.1
	S584.5,386.1,584.5,384.4L584.5,384.4z"/>
<path id="point-0-6-12" class="st8" d="M430.6,162c0-1.7,1.4-3.1,3.1-3.1s3.1,1.4,3.1,3.1c0,1.7-1.4,3.1-3.1,3.1l0,0l0,0
	C432,165.1,430.6,163.7,430.6,162z"/>
<path id="point-0-6-13" class="st2" d="M123.3,437.3c0-1.7,1.4-3.1,3.1-3.1c1.7,0,3.1,1.4,3.1,3.1s-1.4,3.1-3.1,3.1l0,0l0,0
	C124.7,440.4,123.3,439,123.3,437.3z"/>
<path id="point-0-6-14" class="st2" d="M224.6,529.2c0-2.3,1.9-4.1,4.1-4.1c2.3,0,4.1,1.9,4.1,4.1c0,2.3-1.8,4.1-4.1,4.1
	C226.4,533.3,224.6,531.5,224.6,529.2C224.5,529.2,224.5,529.2,224.6,529.2z"/>
<text transform="matrix(1 0 0 1 70.35 440.15)" class="st2 st3 st12">10,5</text>
<text transform="matrix(1 0 0 1 135.29 440.25)" class="st2 st3 st12">12,3</text>
<path id="point-0-6-15" class="st2" d="M70.7,450.5c0-2.3,1.8-4.1,4.1-4.1s4.1,1.8,4.1,4.1c0,2.3-1.8,4.1-4.1,4.1l0,0l0,0
	C72.6,454.6,70.8,452.8,70.7,450.5z"/>
<path id="point-0-6-16" class="st8" d="M70.7,467c0-2.3,1.9-4.1,4.1-4.1s4.1,1.9,4.1,4.1c0,2.3-1.8,4.1-4.1,4.1
	C72.6,471.1,70.7,469.3,70.7,467L70.7,467z"/>
<text transform="matrix(1 0 0 1 221.17 518.35)" class="st2 st3 st12">0,0</text>
<text transform="matrix(1 0 0 1 322.98 398.0601)" class="st2 st3 st12">19,5</text>
<g>
	<text transform="matrix(1 0 0 1 354.5672 268.1926)" class="st2 st3 st12">35,1    </text>
</g>
<text transform="matrix(1 0 0 1 73.19 480.72)" class="st2 st3 st12">8,3</text>
<text transform="matrix(1 0 0 1 113.78 418.61)" class="st2 st3 st12">13,4</text>
<text transform="matrix(1 0 0 1 158.49 404.62)" class="st2 st3 st12">15,6</text>
<text transform="matrix(1 0 0 1 218.53 397.03)" class="st2 st3 st12">19,8</text>
<text transform="matrix(1 0 0 1 271.5 391.0601)" class="st2 st3 st12">17,1</text>
<text transform="matrix(1 0 0 1 302.31 350.22)" class="st2 st3 st12">23,9</text>
<text transform="matrix(1 0 0 1 389.38 301.14)" class="st2 st3 st12">31,0</text>
<text transform="matrix(1 0 0 1 450.9734 172.1962)" class="st2 st3 st12">50,0</text>
<text transform="matrix(1 0 0 1 490.78 385.09)" class="st2 st3 st12">19,3</text>
<text transform="matrix(1 0 0 1 527.18 403.37)" class="st2 st3 st12">15,5</text>
<text transform="matrix(1 0 0 1 453.49 408.11)" class="st2 st3 st12">18,2</text>
<text transform="matrix(1 0 0 1 538.13 474.71)" class="st2 st3 st12">7,3</text>
<text transform="matrix(1 0 0 1 627.54 335.76)" class="st2 st3 st12">24,4</text>
<text transform="matrix(1 0 0 1 586.86 398.4399)" class="st2 st3 st12">18,9</text>
<text transform="matrix(1 0 0 1 425.8897 131.2136)" class="st2 st3 st12">53,4</text>
<path class="st13" d="M588,523c-8.1-2.9-19.4-8-31-17c-14.3-11.1-23-23.3-27.9-31.4c-12.4-16.4-31.1-43.6-47.3-80.1
	c-52.9-120.1-39.5-253.9-50.4-254c-0.5,0-1,0.3-1.4,0.8c-19.4,22.4-35.4,86.8-52.6,128.5s-34.3,81.7-51.5,115.4
	c-0.4,0.9-0.3,0.5-0.4,0.7c0,0-0.1,0.2-0.3,0.6"/>
<path id="point-0-6-8-2-2_1_" class="st2" d="M526.2,474.3c0-1.7,1.4-3.1,3.1-3.1c1.7,0,3.1,1.4,3.1,3.1s-1.4,3.1-3.1,3.1l0,0
	C527.7,477.4,526.3,476,526.2,474.3L526.2,474.3L526.2,474.3L526.2,474.3z"/>
<path id="point-0-6-14_1_" class="st2" d="M583.4,523.2c0-2.3,1.9-4.1,4.1-4.1c2.3,0,4.1,1.9,4.1,4.1c0,2.3-1.8,4.1-4.1,4.1
	S583.4,525.5,583.4,523.2L583.4,523.2z"/>
<text transform="matrix(1 0 0 1 592.3802 518.3499)" class="st2 st3 st12">0,8</text>
<text transform="matrix(1 0 0 1 299.2178 42.5651)" class="st2 st14 st15">Turisme Rural</text>
<text transform="matrix(1 0 0 1 246.1129 67.795)" class="st2 st16 st17">Ocupació en percentatge per places.</text>
<g>
	<path class="st2" d="M320,84.7h11.2c1.1,0,2,0.9,2,2v4c0,1.1-0.9,2-2,2H320c-1.1,0-2-0.9-2-2v-4C318,85.6,318.9,84.7,320,84.7z"/>
	<path class="st18" d="M375.7,84.7h11.2c1.1,0,2,0.9,2,2v4c0,1.1-0.9,2-2,2h-11.2c-1.1,0-2-0.9-2-2v-4
		C373.7,85.6,374.6,84.7,375.7,84.7z"/>
	<text transform="matrix(1 0 0 1 391.6303 91.7051)" class="st19 st16 st20">2019</text>
	<text transform="matrix(1 0 0 1 338.1303 91.7051)" class="st19 st16 st20">2020</text>
</g>
<g>
	<text transform="matrix(1 0 0 1 43.6706 623.3051)" class="st21 st16 st20">Font: Elaboració pròpia del LABturisme en base a dades de l&apos;Enquesta d&apos;ocupació en allotjaments de l&apos;INE.        </text>
</g>
<text transform="matrix(1 0 0 1 43.9106 589.155)" class="st21 st16 st20">* Les dades dels mesos de març i maig no estan disponibles, degut al tancament d’establiments per la gestió de la crisi</text>
<text transform="matrix(1 0 0 1 43.9106 601.515)" class="st21 st16 st20">sanitària ocasionada per la Covid-19.</text>
</svg>
