<?xml version="1.0" encoding="utf-8"?>
<!-- Generator: Adobe Illustrator 24.3.0, SVG Export Plug-In . SVG Version: 6.00 Build 0)  -->
<svg version="1.1" id="Capa_1" xmlns="http://www.w3.org/2000/svg" xmlns:xlink="http://www.w3.org/1999/xlink" x="0px" y="0px"
	 viewBox="0 0 702.5 644.5" style="enable-background:new 0 0 702.5 644.5;" xml:space="preserve">
<style type="text/css">
	.st0{fill:#FFFFFF;}
	.st1{fill:none;stroke:#EFEFEF;stroke-dasharray:0;}
	.st2{fill:#1C3761;}
	.st3{font-family:'SourceSansPro-Regular';}
	.st4{font-size:9.62px;}
	.st5{fill:none;stroke:#1C3761;stroke-dasharray:0;}
	.st6{fill:none;stroke:#79C9D1;stroke-width:4;}
	.st7{fill:#79C9D1;}
	.st8{fill:none;stroke:#1C3761;stroke-dasharray:1,1;}
	.st9{font-family:'ArialMT';}
	.st10{font-size:8.24px;}
	.st11{fill:none;stroke:#1C3761;stroke-width:4;}
	.st12{font-size:11.68px;}
	.st13{fill:#003366;}
	.st14{fill:none;stroke:#1C3761;stroke-width:4;stroke-linejoin:round;}
	.st15{fill:#878787;}
	.st16{font-family:'OpenSans-SemiBold';}
	.st17{font-size:10.3px;}
	.st18{font-family:'OpenSans-Bold';}
	.st19{font-size:19.23px;}
	.st20{font-size:13.74px;}
	.st21{fill:#79C8D1;}
	.st22{fill:#1D1D1B;}
</style>
<rect x="0.4" y="14.7" class="st0" width="702.5" height="644.5"/>
<g id="facets">
	<line class="st1" x1="86.4" y1="530.6" x2="650.4" y2="530.6"/>
	<text transform="matrix(1 0 0 1 59.71 533.77)" class="st2 st3 st4">0%</text>
	<line class="st1" x1="86.4" y1="456.2" x2="650.4" y2="456.2"/>
	<text transform="matrix(1 0 0 1 54.93 459.33)" class="st2 st3 st4">20%</text>
	<line class="st1" x1="86.4" y1="381.7" x2="650.4" y2="381.7"/>
	<text transform="matrix(1 0 0 1 54.93 384.89)" class="st2 st3 st4">40%</text>
	<line class="st1" x1="86.4" y1="307.3" x2="650.4" y2="307.3"/>
	<text transform="matrix(1 0 0 1 54.93 310.45)" class="st2 st3 st4">60%</text>
	<line class="st1" x1="86.4" y1="232.8" x2="650.4" y2="232.8"/>
	<text transform="matrix(1 0 0 1 54.93 236)" class="st2 st3 st4">80%</text>
	<line class="st1" x1="86.4" y1="158.4" x2="650.4" y2="158.4"/>
	<text transform="matrix(1 0 0 1 50.16 161.5601)" class="st2 st3 st4">100%</text>
	<path class="st5" d="M86.8,530.6h564"/>
	<line class="st5" x1="86.8" y1="530.3" x2="86.8" y2="534.4"/>
	<line class="st5" x1="138" y1="530.3" x2="138" y2="534.4"/>
	<line class="st5" x1="189.3" y1="530.3" x2="189.3" y2="534.4"/>
	<line class="st5" x1="240.6" y1="530.3" x2="240.6" y2="534.4"/>
	<line class="st5" x1="291.9" y1="530.3" x2="291.9" y2="534.4"/>
	<line class="st5" x1="343.1" y1="530.3" x2="343.1" y2="534.4"/>
	<line class="st5" x1="394.4" y1="530.3" x2="394.4" y2="534.4"/>
	<line class="st5" x1="445.7" y1="530.3" x2="445.7" y2="534.4"/>
	<line class="st5" x1="496.9" y1="530.3" x2="496.9" y2="534.4"/>
	<line class="st5" x1="548.2" y1="530.3" x2="548.2" y2="534.4"/>
	<line class="st5" x1="599.5" y1="530.3" x2="599.5" y2="534.4"/>
	<line class="st5" x1="650.7" y1="530.3" x2="650.7" y2="534.4"/>
</g>
<g id="lines">
	<path class="st6" d="M86.4,350.5c17.1-9.5,34.2-19,51.3-26.4s34.2-9.7,51.3-17.9s34.2-31.3,51.3-31.3s34.2,8.9,51.3,8.9
		s34.2-20.1,51.3-27.2s34.2-10.4,51.2-15.3s34.2-13.8,51.3-13.8s34.2,27.7,51.3,37.2c17.1,9.5,34.2,10.3,51.3,19.7
		s34.2,25.7,51.3,36.8s34.2,20.5,51.3,29.8"/>
</g>
<path id="point-0-0" class="st2" d="M85.8,349.7c0-0.4,0.3-0.7,0.7-0.7l0,0l0,0c0.4,0,0.7,0.3,0.7,0.6l0,0l0,0
	c0,0.4-0.3,0.7-0.7,0.7l0,0l0,0C86,350.4,85.7,350.1,85.8,349.7C85.7,349.7,85.7,349.7,85.8,349.7L85.8,349.7L85.8,349.7z"/>
<path id="point-0-1" class="st2" d="M135,343.8c0-1.5,1.2-2.8,2.8-2.8s2.8,1.2,2.8,2.8s-1.2,2.8-2.8,2.8l0,0l0,0
	C136.2,346.5,135,345.3,135,343.8z"/>
<path id="point-0-3" class="st2" d="M239.6,530.3c0-0.4,0.3-0.7,0.7-0.7s0.7,0.3,0.7,0.7s-0.3,0.7-0.7,0.7S239.6,530.6,239.6,530.3
	L239.6,530.3z"/>
<path id="point-0-5" class="st2" d="M340,471.8c0-1.5,1.2-2.8,2.8-2.8s2.8,1.2,2.8,2.8s-1.2,2.8-2.8,2.8l0,0l0,0
	C341.2,474.6,340,473.3,340,471.8z"/>
<path id="point-0-5-2" class="st2" d="M391.4,431.2c0-1.5,1.2-2.8,2.8-2.8s2.8,1.2,2.8,2.8s-1.2,2.8-2.8,2.8l0,0l0,0
	C392.6,434,391.4,432.7,391.4,431.2z"/>
<path id="point-0-5-2-2" class="st2" d="M444,425.8c0-1.5,1.2-2.8,2.8-2.8s2.8,1.2,2.8,2.8s-1.2,2.8-2.8,2.8l0,0l0,0
	C445.2,428.5,444,427.3,444,425.8z"/>
<path id="point-0-5-2-2-2" class="st2" d="M494.9,461.8c0-1.5,1.2-2.8,2.8-2.8s2.8,1.2,2.8,2.8s-1.2,2.8-2.8,2.8l0,0
	C496.2,464.5,494.9,463.3,494.9,461.8L494.9,461.8z"/>
<path id="point-1-0" class="st7" d="M85.8,350.5c0-0.4,0.3-0.7,0.6-0.7l0,0l0,0c0.4,0,0.7,0.3,0.7,0.7l0,0l0,0
	c0,0.4-0.3,0.7-0.7,0.7l0,0l0,0C86.1,351.2,85.8,350.9,85.8,350.5L85.8,350.5L85.8,350.5L85.8,350.5z"/>
<path id="point-1-1" class="st7" d="M135,324c0-1.5,1.2-2.8,2.8-2.8s2.8,1.2,2.8,2.8s-1.2,2.8-2.8,2.8l0,0l0,0
	C136.2,326.8,135,325.6,135,324z"/>
<path id="point-1-2" class="st7" d="M186.2,306.2c0-1.5,1.2-2.8,2.8-2.8s2.8,1.2,2.8,2.8s-1.2,2.8-2.8,2.8l0,0l0,0
	C187.5,308.9,186.2,307.7,186.2,306.2z"/>
<path id="point-1-3" class="st7" d="M237.5,274.9c0-1.5,1.2-2.8,2.8-2.8s2.8,1.2,2.8,2.8s-1.2,2.8-2.8,2.8l0,0l0,0
	C238.7,277.7,237.5,276.4,237.5,274.9z"/>
<path id="point-1-4" class="st7" d="M288.8,283.9c0-1.5,1.2-2.8,2.8-2.8s2.8,1.2,2.8,2.8s-1.2,2.8-2.8,2.8l0,0l0,0
	C290,286.6,288.8,285.4,288.8,283.9z"/>
<path id="point-1-5" class="st7" d="M340,256.7c0-1.5,1.2-2.8,2.8-2.8s2.8,1.2,2.8,2.8c0,1.5-1.2,2.8-2.8,2.8S340,258.2,340,256.7
	L340,256.7z"/>
<path id="point-1-6" class="st7" d="M391.3,241.4c0-1.5,1.2-2.8,2.8-2.8s2.8,1.2,2.8,2.8s-1.2,2.8-2.8,2.8l0,0
	C392.5,244.2,391.3,242.9,391.3,241.4z"/>
<path id="point-1-7" class="st7" d="M442.6,227.6c0-1.5,1.2-2.8,2.8-2.8s2.8,1.2,2.8,2.8s-1.2,2.8-2.8,2.8l0,0
	C443.8,230.4,442.6,229.2,442.6,227.6z"/>
<path id="point-1-8" class="st7" d="M493.8,264.9c0-1.5,1.2-2.8,2.8-2.8s2.8,1.2,2.8,2.8s-1.2,2.8-2.8,2.8S493.8,266.4,493.8,264.9
	L493.8,264.9z"/>
<path id="point-1-9" class="st7" d="M545.1,284.6c0-1.5,1.2-2.8,2.7-2.8s2.8,1.2,2.8,2.7s-1.2,2.8-2.7,2.8l0,0
	C546.3,287.3,545.1,286.1,545.1,284.6L545.1,284.6z"/>
<path id="point-1-10" class="st7" d="M596.4,321.4c0-1.5,1.2-2.8,2.8-2.8s2.8,1.2,2.8,2.8s-1.2,2.8-2.8,2.8l0,0l0,0
	C597.6,324.2,596.4,323,596.4,321.4z"/>
<path id="point-1-11" class="st7" d="M646.3,351.2c0-2.3,1.8-4.1,4.1-4.1s4.1,1.8,4.1,4.1c0,2.3-1.8,4.1-4.1,4.1l0,0l0,0
	C648.1,355.3,646.3,353.5,646.3,351.2L646.3,351.2L646.3,351.2L646.3,351.2z"/>
<line class="st8" x1="86.4" y1="286.5" x2="650.4" y2="286.5"/>
<text transform="matrix(1 0 0 1 571.11 282.34)" class="st2 st9 st10">Mitjana 2019: 65,5%</text>
<text transform="matrix(1 0 0 1 78.54 548.05)" class="st2 st3 st4">Gen.</text>
<text transform="matrix(1 0 0 1 130.49 548.05)" class="st2 st3 st4">F</text>
<text transform="matrix(1 0 0 1 135.11 548.05)" class="st2 st3 st4">e</text>
<text transform="matrix(1 0 0 1 139.88 548.05)" class="st2 st3 st4">b</text>
<text transform="matrix(1 0 0 1 145.1 548.05)" class="st2 st3 st4">.</text>
<text transform="matrix(1 0 0 1 180.4 548.05)" class="st2 st3 st4">Ma</text>
<text transform="matrix(1 0 0 1 192.24 548.05)" class="st2 st3 st4">r</text>
<text transform="matrix(1 0 0 1 195.03 548.05)" class="st2 st3 st4">.</text>
<text transform="matrix(1 0 0 1 196.09 548.05)" class="st2 st3 st4">*</text>
<text transform="matrix(1 0 0 1 233.66 548.05)" class="st2 st3 st4">Ab</text>
<text transform="matrix(1 0 0 1 244.21 548.05)" class="st2 st3 st4">r</text>
<text transform="matrix(1 0 0 1 247 548.05)" class="st2 st3 st4">.</text>
<text transform="matrix(1 0 0 1 283.15 548.05)" class="st2 st3 st4">Mai</text>
<text transform="matrix(1 0 0 1 297.35 548.05)" class="st2 st3 st4">.</text>
<text transform="matrix(1 0 0 1 298.42 548.05)" class="st2 st3 st4">*</text>
<text transform="matrix(1 0 0 1 335.31 548.05)" class="st2 st3 st4">Jun.</text>
<text transform="matrix(1 0 0 1 387.99 548.05)" class="st2 st3 st4">Jul.</text>
<text transform="matrix(1 0 0 1 437.88 548.05)" class="st2 st3 st4">A</text>
<text transform="matrix(1 0 0 1 443.11 548.05)" class="st2 st3 st4">g</text>
<text transform="matrix(1 0 0 1 447.82 548.05)" class="st2 st3 st4">o</text>
<text transform="matrix(1 0 0 1 452.94 548.05)" class="st2 st3 st4">.</text>
<text transform="matrix(1 0 0 1 490.11 548.05)" class="st2 st3 st4">S</text>
<text transform="matrix(1 0 0 1 495.25 548.05)" class="st2 st3 st4">e</text>
<text transform="matrix(1 0 0 1 499.92 548.05)" class="st2 st3 st4">t</text>
<text transform="matrix(1 0 0 1 503.24 548.05)" class="st2 st3 st4">.</text>
<text transform="matrix(1 0 0 1 540.95 548.05)" class="st2 st3 st4">O</text>
<text transform="matrix(1 0 0 1 547.34 548.05)" class="st2 st3 st4">c</text>
<text transform="matrix(1 0 0 1 551.62 548.05)" class="st2 st3 st4">t</text>
<text transform="matrix(1 0 0 1 554.94 548.05)" class="st2 st3 st4">.</text>
<text transform="matrix(1 0 0 1 591.43 548.05)" class="st2 st3 st4">N</text>
<text transform="matrix(1 0 0 1 597.65 548.05)" class="st2 st3 st4">o</text>
<text transform="matrix(1 0 0 1 602.83 548.05)" class="st2 st3 st4">v</text>
<text transform="matrix(1 0 0 1 606.98 548.05)" class="st2 st3 st4">.</text>
<text transform="matrix(1 0 0 1 643.12 548.05)" class="st2 st3 st4">Des.</text>
<path class="st11" d="M86.4,349.7c17.1-3,34.2-6,51.3-6h0.7"/>
<path id="point-0-6-2" class="st2" d="M82.3,350.3c0-2.3,1.8-4.1,4.1-4.1s4.1,1.8,4.1,4.1c0,2.3-1.8,4.1-4.1,4.1l0,0l0,0
	C84.1,354.4,82.3,352.6,82.3,350.3L82.3,350.3L82.3,350.3L82.3,350.3z"/>
<text transform="matrix(1 0 0 1 61.16 341.89)" class="st2 st3 st12">48,5</text>
<text transform="matrix(1 0 0 1 140.45 353.91)" class="st2 st3 st12">50,1</text>
<text transform="matrix(1 0 0 1 344.97 482.69)" class="st2 st3 st12">15,7</text>
<text transform="matrix(1 0 0 1 385.85 422.91)" class="st2 st3 st12">26,8</text>
<text transform="matrix(1 0 0 1 81.46 372.48)" class="st2 st3 st12">48,3</text>
<text transform="matrix(1 0 0 1 112.41 323.24)" class="st2 st3 st12">55,4</text>
<text transform="matrix(1 0 0 1 196.41 315.79)" class="st2 st3 st12">60,2</text>
<text transform="matrix(1 0 0 1 233.13 268.3101)" class="st2 st3 st12">68,6</text>
<text transform="matrix(1 0 0 1 283.15 299.65)" class="st2 st3 st12">66,2</text>
<text transform="matrix(1 0 0 1 329.67 251.1899)" class="st2 st3 st12">73,5</text>
<text transform="matrix(1 0 0 1 376.76 234.57)" class="st2 st3 st12">77,6</text>
<text transform="matrix(1 0 0 1 437.88 220.14)" class="st2 st3 st12">80,9</text>
<text transform="matrix(1 0 0 1 496.58 260.72)" class="st2 st3 st12">70,8</text>
<text transform="matrix(1 0 0 1 530.27 299.65)" class="st2 st3 st12">65,7</text>
<text transform="matrix(1 0 0 1 577.76 333.66)" class="st2 st3 st12">55,6</text>
<text transform="matrix(1 0 0 1 629.55 365.28)" class="st2 st3 st12">48,1</text>
<path id="point-0-6-3" class="st2" d="M237.1,530.4c0-2.3,1.8-4.1,4.1-4.1s4.1,1.8,4.1,4.1s-1.8,4.1-4.1,4.1l0,0l0,0
	C239,534.6,237.1,532.7,237.1,530.4L237.1,530.4z"/>
<text transform="matrix(1 0 0 1 233.74 519.61)" class="st2 st3 st12">0,0</text>
<path class="st11" d="M341.6,472.5c17.6-12.5,35.1-38,52.7-41.5"/>
<path id="point-0-7" class="st13" d="M595,487.4c0-2.4,1.8-4.3,4.2-4.3s4.3,1.8,4.3,4.2c0,2.4-1.8,4.3-4.2,4.3h-0.1
	C597,491.6,595,489.7,595,487.4z"/>
<text transform="matrix(1 0 0 1 439.33 418.63)" class="st2 st3 st12">28,2</text>
<text transform="matrix(1 0 0 1 499.4099 456.1603)" class="st2 st3 st12">18,5</text>
<text transform="matrix(1 0 0 1 551.6199 472.4896)" class="st2 st3 st12">15,1</text>
<path class="st14" d="M597.2,488.4c-19.1-2.8-35.6-5.8-49.1-8.5c-31.5-6.3-41.5-10.1-50.5-18.1c-6.9-6.2-6.7-8.7-14.5-16.2
	c-12.3-11.8-26.4-17.1-36.7-19.8c0.3,0,0.4,0,0.4,0c0,0.1-17.5,1.9-52.7,5.2"/>
<path id="point-0-5-2-2-2_1_" class="st2" d="M544.6,479.9c0-1.5,1.2-2.8,2.8-2.8s2.8,1.2,2.8,2.8s-1.2,2.8-2.8,2.8
	S544.6,481.4,544.6,479.9z"/>
<text transform="matrix(1 0 0 1 606.9799 488.4118)" class="st2 st3 st12">12,8</text>
<g>
	<text transform="matrix(1 0 0 1 61.4186 625.4246)" class="st15 st16 st17">Font: Elaboració pròpia del LABturisme en base a dades de l&apos;Enquesta d&apos;ocupació en allotjaments de l&apos;INE.        </text>
</g>
<text transform="matrix(1 0 0 1 61.6586 591.2746)" class="st15 st16 st17">* Les dades dels mesos de març i maig no estan disponibles, degut al tancament d’establiments per la gestió de la crisi</text>
<text transform="matrix(1 0 0 1 61.6586 603.6346)" class="st15 st16 st17">sanitària ocasionada per la Covid-19.</text>
<g>
	<text transform="matrix(1 0 0 1 249.1771 44.6847)" class="st2 st18 st19">Establiments hotelers</text>
	<text transform="matrix(1 0 0 1 233.6171 69.9146)" class="st2 st16 st20">Ocupació en percentatge per places.</text>
	<path class="st2" d="M307.5,86.9h11.2c1.1,0,2,0.9,2,2v4c0,1.1-0.9,2-2,2h-11.2c-1.1,0-2-0.9-2-2v-4
		C305.5,87.8,306.4,86.9,307.5,86.9z"/>
	<path class="st21" d="M363.2,86.9h11.2c1.1,0,2,0.9,2,2v4c0,1.1-0.9,2-2,2h-11.2c-1.1,0-2-0.9-2-2v-4
		C361.2,87.8,362.1,86.9,363.2,86.9z"/>
	<text transform="matrix(1 0 0 1 379.1172 93.8247)" class="st22 st16 st17">2019</text>
	<text transform="matrix(1 0 0 1 325.6171 93.8247)" class="st22 st16 st17">2020</text>
</g>
</svg>
